<svg width="125" height="128" viewBox="0 0 125 128" fill="#d10c00"
    xmlns="http://www.w3.org/2000/svg">
    <path
        d="M52.2073 0C51.9384 0 51.4651 0.139832 50.7278 0.835496C49.9905 1.5317 49.1127 2.7235 48.2563 4.26676C46.5433 7.35328 44.8877 11.805 43.5058 16.5432C42.3414 20.5349 41.3787 24.7333 40.651 28.5367C55.2664 34.9956 69.5852 34.9956 84.2006 28.5367C83.4729 24.7333 82.5103 20.5349 81.3459 16.5432C79.964 11.805 78.3086 7.35328 76.5954 4.26676C75.7389 2.7235 74.8609 1.5317 74.1238 0.835496C73.3865 0.139832 72.9132 0 72.6443 0C70.8964 0 70.1994 0.369748 69.7342 0.766387C69.269 1.16276 68.9221 1.79092 68.5623 2.74017C68.2025 3.68941 67.9177 4.89788 67.0698 6.17761C66.2217 7.45681 64.4069 8.60504 62.4258 8.60504C60.427 8.60504 58.5966 7.47698 57.732 6.1881C56.8678 4.89896 56.5865 3.67785 56.2326 2.7243C55.8787 1.77076 55.5402 1.14662 55.0887 0.757244C54.6369 0.368403 53.9552 0 52.2073 0ZM39.8077 33.4344C39.4286 35.9293 39.1903 38.0488 39.1166 39.5122C40.8941 40.8801 43.886 42.2032 47.6523 43.0892C51.9868 44.1092 57.209 44.6387 62.4258 44.6387C67.6426 44.6387 72.8648 44.1092 77.1996 43.0892C80.9657 42.2032 83.9572 40.8801 85.7353 39.5122C85.6613 38.0485 85.4231 35.9293 85.0442 33.4344C70.0507 39.7085 54.8009 39.7085 39.8077 33.4344ZM34.4446 36.5983C29.28 37.5019 24.5741 38.5842 20.4835 39.7257C15.1379 41.2176 10.8284 42.8152 7.96719 44.1815C6.5366 44.8651 5.46313 45.5032 4.87637 45.9482C4.77687 46.0235 4.80995 46.0305 4.75671 46.0951C4.84625 46.2771 4.97721 46.4866 5.22192 46.7617C5.75247 47.3576 6.71812 48.1041 8.0796 48.8441C10.8028 50.3242 15.0561 51.7908 20.3754 53.0138C31.0139 55.4595 45.9426 57.0084 62.4258 57.0084C78.909 57.0084 93.8377 55.4595 104.476 53.0138C109.795 51.7908 114.049 50.3242 116.772 48.8441C118.134 48.1041 119.099 47.3576 119.63 46.7617C119.874 46.4866 120.005 46.2771 120.095 46.0951C120.042 46.0305 120.075 46.0235 119.975 45.948C119.389 45.5032 118.315 44.8651 116.884 44.1818C114.023 42.8152 109.714 41.2176 104.368 39.726C100.278 38.5842 95.5716 37.5016 90.407 36.5983C90.5705 38.1545 90.6611 39.5203 90.6611 40.605V41.6078L89.952 42.3161C87.2304 45.038 83.1158 46.67 78.3078 47.8015C73.4994 48.9328 67.9653 49.479 62.4258 49.479C56.8863 49.479 51.3522 48.9328 46.5441 47.8015C41.7361 46.6703 37.6212 45.038 34.8996 42.3161L34.1905 41.6081V40.605C34.1905 39.5203 34.2811 38.1545 34.4446 36.5983ZM34.7388 60.3173C35.1473 77.76 47.5391 91.4286 62.4258 91.4286C77.3125 91.4286 89.7043 77.76 90.1125 60.3173C88.3864 60.5201 86.6577 60.7006 84.9269 60.8586C84.5693 62.2709 83.0758 67.648 80.7115 69.1092C77.0517 71.3713 71.5671 71.1949 67.804 69.1092C65.6565 67.9191 63.8067 63.9473 62.9464 61.8455C62.7722 61.8461 62.6003 61.8487 62.4258 61.8487C62.251 61.8487 62.0795 61.8461 61.9052 61.8455C61.0447 63.9473 59.1952 67.9191 57.0477 69.1092C53.2846 71.1949 47.7999 71.3713 44.1401 69.1092C41.7759 67.648 40.2824 62.2709 39.9247 60.8586C38.1938 60.7006 36.465 60.5201 34.7388 60.3173ZM30.5334 66.7453C17.7786 70.3029 9.76215 75.4184 0 83.1707C11.4487 84.3652 18.1475 88.9033 27.2309 96.2716L31.783 99.9642L25.9515 100.559C22.2774 100.933 18.3021 102.877 15.3834 105.211C13.7901 106.485 12.6465 107.916 11.8992 109.071C23.9139 110.648 31.6539 111.784 38.2551 114.489C43.2575 116.539 47.6157 119.569 52.7053 124.111L54.1316 117.771C53.6374 115.153 53.02 112.424 52.2818 109.623C50.905 107.679 49.674 105.626 48.7494 103.705C47.8005 101.735 47.0981 100.034 47.0981 98.1513C47.0981 97.2684 47.3498 96.4313 47.751 95.6953C47.1575 94.1721 46.5351 92.6603 45.8842 91.1607C38.0636 85.9176 32.3805 77.081 30.5334 66.7453ZM94.3183 66.7453C92.4709 77.081 86.788 85.9176 78.9674 91.1607C78.3166 92.6602 77.6942 94.1718 77.1006 95.6948C77.5021 96.4308 77.7535 97.2682 77.7535 98.1513C77.7535 100.034 77.0512 101.735 76.1025 103.705C75.1774 105.626 73.9461 107.68 72.569 109.624C71.822 112.46 71.1979 115.223 70.7004 117.87L72.0826 124.168C77.1999 119.594 81.5731 116.548 86.5966 114.489C93.1977 111.784 100.937 110.648 112.952 109.071C112.205 107.916 111.062 106.485 109.468 105.211C106.55 102.877 102.574 100.933 98.9002 100.559L93.0686 99.9642L97.6207 96.2716C106.704 88.9035 113.403 84.3652 124.852 83.1707C115.089 75.4184 107.073 70.3032 94.3183 66.7453ZM62.4258 96.2689C60.2746 96.2689 57.1574 96.2953 54.8335 96.7599C53.6715 96.9923 52.736 97.3574 52.3076 97.6538C51.8795 97.9504 51.9384 97.8824 51.9384 98.1513C51.9384 98.4202 52.3117 99.946 53.1109 101.606C53.9098 103.265 55.0596 105.187 56.3281 106.963C57.5965 108.739 58.997 110.378 60.2178 111.483C61.3136 112.474 62.3266 112.86 62.4258 112.929C62.5253 112.86 63.538 112.474 64.6335 111.483C65.8544 110.378 67.2551 108.739 68.5236 106.963C69.792 105.187 70.9418 103.265 71.741 101.606C72.5402 99.946 72.9132 98.4202 72.9132 98.1513C72.9132 97.8824 72.9724 97.9504 72.544 97.6538C72.1156 97.3574 71.1801 96.9923 70.0182 96.7599C67.6943 96.2953 64.5771 96.2689 62.4258 96.2689ZM62.4258 112.929C62.4145 112.937 62.4121 112.941 62.4258 112.941C62.4395 112.941 62.4371 112.936 62.4258 112.929ZM59.2936 116.882L56.7914 128H67.9672L65.5314 116.898C64.6206 117.435 63.6222 117.782 62.4258 117.782C61.2179 117.782 60.2114 117.428 59.2936 116.882Z"
        fill="#d10c00" />
</svg>